<svg xmlns="http://www.w3.org/2000/svg" version="1.1" xmlns:xlink="http://www.w3.org/1999/xlink" xmlns:svgjs="http://svgjs.dev/svgjs" width="2000" height="616" viewBox="0 0 2000 616"><g transform="matrix(1,0,0,1,-1.2121212121212466,-0.28221035357216806)"><svg viewBox="0 0 396 122" data-background-color="#ffffff" preserveAspectRatio="xMidYMid meet" height="616" width="2000" xmlns="http://www.w3.org/2000/svg" xmlns:xlink="http://www.w3.org/1999/xlink"><g id="tight-bounds" transform="matrix(1,0,0,1,0.2400000000000091,0.05589231028540098)"><svg viewBox="0 0 395.52 121.8882153794292" height="121.8882153794292" width="395.52"><g><svg viewBox="0 0 544.6523944119622 167.84665341071772" height="121.8882153794292" width="395.52"><g transform="matrix(1,0,0,1,149.13239441196217,11.630474123387557)"><svg viewBox="0 0 395.52 144.5857051639426" height="144.5857051639426" width="395.52"><g id="textblocktransform"><svg viewBox="0 0 395.52 144.5857051639426" height="144.5857051639426" width="395.52" id="textblock"><g><svg viewBox="0 0 395.52 90.48135900339751" height="90.48135900339751" width="395.52"><g transform="matrix(1,0,0,1,0,0)"><svg width="395.52" viewBox="0.35 -39.65 220.73000000000002 50.5" height="90.48135900339751" data-palette-color="#e0e0e0"><path d="M11.75-35.25Q14.75-35.25 17.05-34.2 19.35-33.15 21.3-31.05L21.3-31.05 18.35-27.65Q16.8-29.05 15.33-29.75 13.85-30.45 12.2-30.45L12.2-30.45Q10.3-30.45 9.2-29.28 8.1-28.1 8.1-26.2L8.1-26.2Q8.1-24.3 9.25-23.1 10.4-21.9 13.75-20.6L13.75-20.6Q18.05-18.85 20.08-16.5 22.1-14.15 22.1-9.85L22.1-9.85Q22.1-6.9 20.75-4.48 19.4-2.05 16.88-0.65 14.35 0.75 11 0.75L11 0.75Q7.55 0.75 5-0.48 2.45-1.7 0.35-3.95L0.35-3.95 3.55-7.45Q5.35-5.85 7-5 8.65-4.15 10.6-4.15L10.6-4.15Q12.9-4.15 14.18-5.58 15.45-7 15.45-9.45L15.45-9.45Q15.45-11.6 14.33-12.98 13.2-14.35 10.15-15.5L10.15-15.5Q5.55-17.35 3.53-19.75 1.5-22.15 1.5-25.75L1.5-25.75Q1.5-28.5 2.83-30.65 4.15-32.8 6.5-34.02 8.85-35.25 11.75-35.25L11.75-35.25ZM35.6-27.15Q37.75-27.15 39.5-26.43 41.25-25.7 42.85-24.15L42.85-24.15 40.2-20.65Q39.1-21.55 38.12-21.98 37.15-22.4 36-22.4L36-22.4Q33.75-22.4 32.6-20.28 31.45-18.15 31.45-13.1L31.45-13.1Q31.45-8.2 32.62-6.2 33.8-4.2 36-4.2L36-4.2Q37.1-4.2 38-4.6 38.9-5 40.1-5.85L40.1-5.85 42.85-2.3Q39.65 0.75 35.7 0.75L35.7 0.75Q30.6 0.75 27.77-2.73 24.95-6.2 24.95-13L24.95-13Q24.95-17.4 26.25-20.6 27.55-23.8 29.97-25.48 32.4-27.15 35.6-27.15L35.6-27.15ZM57.55-27.1Q58.7-27.1 59.59-26.75L59.59-26.75 58.59-20.85Q57.59-21.1 56.75-21.1L56.75-21.1Q54.84-21.1 53.75-19.45 52.65-17.8 52.05-14.55L52.05-14.55 52.05 0 45.9 0 45.9-26.45 51.25-26.45 51.7-21.85Q53.55-27.1 57.55-27.1L57.55-27.1ZM62.44-26.45L68.59-26.45 68.59 0 62.44 0 62.44-26.45ZM65.49-39.65Q67.14-39.65 68.17-38.6 69.19-37.55 69.19-35.9L69.19-35.9Q69.19-34.3 68.17-33.25 67.14-32.2 65.49-32.2L65.49-32.2Q63.84-32.2 62.82-33.25 61.79-34.3 61.79-35.9L61.79-35.9Q61.79-37.55 62.82-38.6 63.84-39.65 65.49-39.65L65.49-39.65ZM86.49-27.15Q90.39-27.15 92.39-23.58 94.39-20 94.39-13.3L94.39-13.3Q94.39-6.8 92.11-3.03 89.84 0.75 85.79 0.75L85.79 0.75Q82.59 0.75 80.44-2.1L80.44-2.1 80.44 10.15 74.29 10.85 74.29-26.45 79.74-26.45 79.99-23.25Q81.29-25.25 82.89-26.2 84.49-27.15 86.49-27.15L86.49-27.15ZM84.14-3.95Q86.04-3.95 87.04-6.13 88.04-8.3 88.04-13.25L88.04-13.25Q88.04-18.45 87.19-20.5 86.34-22.55 84.54-22.55L84.54-22.55Q82.24-22.55 80.44-19.25L80.44-19.25 80.44-6.45Q82.04-3.95 84.14-3.95L84.14-3.95ZM110.14-5L112.29-1.2Q109.84 0.75 106.54 0.75L106.54 0.75Q103.09 0.75 101.29-1.23 99.49-3.2 99.49-6.6L99.49-6.6 99.49-22 96.39-22 96.39-26.45 99.49-26.45 99.49-32.3 105.64-33.05 105.64-26.45 110.64-26.45 110.04-22 105.64-22 105.64-6.6Q105.64-4.2 107.69-4.2L107.69-4.2Q108.34-4.2 108.84-4.38 109.34-4.55 110.14-5L110.14-5ZM124.24-27.15Q129.24-27.15 132.01-23.65 134.79-20.15 134.79-13.25L134.79-13.25Q134.79-6.65 131.99-2.95 129.19 0.75 124.24 0.75L124.24 0.75Q119.29 0.75 116.49-2.88 113.69-6.5 113.69-13.25L113.69-13.25Q113.69-19.95 116.49-23.55 119.29-27.15 124.24-27.15L124.24-27.15ZM124.24-22.5Q122.09-22.5 121.09-20.38 120.09-18.25 120.09-13.25L120.09-13.25Q120.09-8.2 121.09-6.08 122.09-3.95 124.24-3.95L124.24-3.95Q126.39-3.95 127.39-6.08 128.39-8.2 128.39-13.25L128.39-13.25Q128.39-18.3 127.39-20.4 126.39-22.5 124.24-22.5L124.24-22.5ZM150.98-27.1Q152.13-27.1 153.03-26.75L153.03-26.75 152.03-20.85Q151.03-21.1 150.18-21.1L150.18-21.1Q148.28-21.1 147.18-19.45 146.08-17.8 145.48-14.55L145.48-14.55 145.48 0 139.33 0 139.33-26.45 144.68-26.45 145.13-21.85Q146.98-27.1 150.98-27.1L150.98-27.1ZM155.88-26.45L162.03-26.45 162.03 0 155.88 0 155.88-26.45ZM158.93-39.65Q160.58-39.65 161.61-38.6 162.63-37.55 162.63-35.9L162.63-35.9Q162.63-34.3 161.61-33.25 160.58-32.2 158.93-32.2L158.93-32.2Q157.28-32.2 156.26-33.25 155.23-34.3 155.23-35.9L155.23-35.9Q155.23-37.55 156.26-38.6 157.28-39.65 158.93-39.65L158.93-39.65ZM185.88-26.45L185.88 0 180.53 0 180.23-3.35Q178.98-1.3 177.43-0.28 175.88 0.75 173.83 0.75L173.83 0.75Q170.93 0.75 169.25-1.3 167.58-3.35 167.58-6.65L167.58-6.65 167.58-26.45 173.73-26.45 173.73-7Q173.73-3.9 175.83-3.9L175.83-3.9Q177.03-3.9 177.98-4.83 178.93-5.75 179.73-7.45L179.73-7.45 179.73-26.45 185.88-26.45ZM215.23-27.15Q217.88-27.15 219.48-25.1 221.08-23.05 221.08-19.6L221.08-19.6 221.08 0 215.03 0 215.03-18.95Q215.03-20.85 214.53-21.68 214.03-22.5 213.08-22.5L213.08-22.5Q211.13-22.5 209.33-18.8L209.33-18.8 209.33 0 203.33 0 203.33-18.95Q203.33-22.5 201.43-22.5L201.43-22.5Q199.38-22.5 197.63-18.8L197.63-18.8 197.63 0 191.58 0 191.58-26.45 196.93-26.45 197.33-23.05Q199.93-27.15 203.58-27.15L203.58-27.15Q205.43-27.15 206.78-26 208.13-24.85 208.83-22.75L208.83-22.75Q211.48-27.15 215.23-27.15L215.23-27.15Z" opacity="1" transform="matrix(1,0,0,1,0,0)" fill="#ffffff" class="wordmark-text-0" data-fill-palette-color="primary" id="text-0"></path></svg></g></svg></g><g transform="matrix(1,0,0,1,0,111.84183631148359)"><svg viewBox="0 0 395.52 32.74386885245902" height="32.74386885245902" width="395.52"><g transform="matrix(1,0,0,1,0,0)"><svg width="395.52" viewBox="1.75 -39.65 609.92 50.5" height="32.74386885245902" data-palette-color="#e0e0e0"><path d="M14.5-35.25Q17.15-35.25 19.18-34.38 21.2-33.5 23.1-31.7L23.1-31.7 20.05-28.05Q18.75-29.25 17.53-29.83 16.3-30.4 14.85-30.4L14.85-30.4Q11.85-30.4 10.15-27.4 8.45-24.4 8.45-17.35L8.45-17.35Q8.45-10.4 10.15-7.38 11.85-4.35 14.95-4.35L14.95-4.35Q16.5-4.35 17.65-4.98 18.8-5.6 20.35-6.9L20.35-6.9 23.4-3.4Q21.8-1.6 19.55-0.43 17.3 0.75 14.5 0.75L14.5 0.75Q8.65 0.75 5.2-3.8 1.75-8.35 1.75-17.35L1.75-17.35Q1.75-23.3 3.4-27.3 5.05-31.3 7.93-33.27 10.8-35.25 14.5-35.25L14.5-35.25ZM36.05-27.15Q41.05-27.15 43.82-23.65 46.6-20.15 46.6-13.25L46.6-13.25Q46.6-6.65 43.8-2.95 41 0.75 36.05 0.75L36.05 0.75Q31.1 0.75 28.3-2.88 25.5-6.5 25.5-13.25L25.5-13.25Q25.5-19.95 28.3-23.55 31.1-27.15 36.05-27.15L36.05-27.15ZM36.05-22.5Q33.9-22.5 32.9-20.38 31.9-18.25 31.9-13.25L31.9-13.25Q31.9-8.2 32.9-6.08 33.9-3.95 36.05-3.95L36.05-3.95Q38.2-3.95 39.2-6.08 40.2-8.2 40.2-13.25L40.2-13.25Q40.2-18.3 39.2-20.4 38.2-22.5 36.05-22.5L36.05-22.5ZM64.09-37.7L70.25-37.05 70.25 0 64.8 0 64.5-3.05Q62.15 0.75 58.45 0.75L58.45 0.75Q54.34 0.75 52.17-2.93 50-6.6 50-13.2L50-13.2Q50-17.4 51.12-20.58 52.25-23.75 54.25-25.45 56.25-27.15 58.84-27.15L58.84-27.15Q62.05-27.15 64.09-24.5L64.09-24.5 64.09-37.7ZM60.2-3.9Q61.34-3.9 62.27-4.7 63.2-5.5 64.09-7L64.09-7 64.09-19.85Q62.5-22.55 60.45-22.55L60.45-22.55Q56.4-22.55 56.4-13.25L56.4-13.25Q56.4-8.2 57.4-6.05 58.4-3.9 60.2-3.9L60.2-3.9ZM94.79-13.85Q94.79-13.4 94.64-11.3L94.64-11.3 80.99-11.3Q81.19-7.2 82.42-5.58 83.64-3.95 85.89-3.95L85.89-3.95Q87.44-3.95 88.69-4.48 89.94-5 91.39-6.15L91.39-6.15 93.94-2.65Q90.44 0.75 85.54 0.75L85.54 0.75Q80.34 0.75 77.57-2.85 74.79-6.45 74.79-13L74.79-13Q74.79-19.55 77.44-23.35 80.09-27.15 84.94-27.15L84.94-27.15Q89.59-27.15 92.19-23.78 94.79-20.4 94.79-13.85L94.79-13.85ZM88.79-15.3L88.79-15.65Q88.79-19.4 87.89-21.13 86.99-22.85 84.99-22.85L84.99-22.85Q83.14-22.85 82.17-21.18 81.19-19.5 80.99-15.3L80.99-15.3 88.79-15.3ZM106.49-34.55L128.04-34.55 127.34-29.55 120.24-29.55 120.24 0 113.89 0 113.89-29.55 106.49-29.55 106.49-34.55ZM140.34-27.15Q145.34-27.15 148.11-23.65 150.89-20.15 150.89-13.25L150.89-13.25Q150.89-6.65 148.09-2.95 145.28 0.75 140.34 0.75L140.34 0.75Q135.39 0.75 132.59-2.88 129.78-6.5 129.78-13.25L129.78-13.25Q129.78-19.95 132.59-23.55 135.39-27.15 140.34-27.15L140.34-27.15ZM140.34-22.5Q138.19-22.5 137.19-20.38 136.19-18.25 136.19-13.25L136.19-13.25Q136.19-8.2 137.19-6.08 138.19-3.95 140.34-3.95L140.34-3.95Q142.49-3.95 143.49-6.08 144.49-8.2 144.49-13.25L144.49-13.25Q144.49-18.3 143.49-20.4 142.49-22.5 140.34-22.5L140.34-22.5ZM173.38-29.85L174.93-25.1Q173.88-24.6 172.41-24.4 170.93-24.2 168.73-24.2L168.73-24.2Q170.83-23.2 171.86-21.53 172.88-19.85 172.88-17.4L172.88-17.4Q172.88-13.4 170.43-10.95 167.98-8.5 163.78-8.5L163.78-8.5Q162.53-8.5 161.23-8.9L161.23-8.9Q160.33-8.15 160.33-6.85L160.33-6.85Q160.33-5.85 160.88-5.35 161.43-4.85 162.93-4.85L162.93-4.85 165.73-4.85Q169.73-4.85 172.08-2.78 174.43-0.7 174.43 2.5L174.43 2.5Q174.43 6.3 171.51 8.58 168.58 10.85 163.18 10.85L163.18 10.85Q157.48 10.85 155.21 8.75 152.93 6.65 152.93 2.6L152.93 2.6 158.38 2.6Q158.38 4.75 159.38 5.65 160.38 6.55 163.23 6.55L163.23 6.55Q165.98 6.55 167.13 5.6 168.28 4.65 168.28 2.9L168.28 2.9Q168.28 1.2 167.33 0.4 166.38-0.4 164.38-0.4L164.38-0.4 162.48-0.4Q158.68-0.4 156.93-1.75 155.18-3.1 155.18-5.45L155.18-5.45Q155.18-6.8 155.91-8.03 156.63-9.25 157.88-10.2L157.88-10.2Q155.83-11.5 154.88-13.3 153.93-15.1 153.93-17.7L153.93-17.7Q153.93-22.05 156.53-24.58 159.13-27.1 163.53-27.1L163.53-27.1Q166.78-27.1 168.91-27.8 171.03-28.5 173.38-29.85L173.38-29.85ZM163.53-23Q161.78-23 160.88-21.75 159.98-20.5 159.98-17.8L159.98-17.8Q159.98-15.25 160.88-13.88 161.78-12.5 163.48-12.5L163.48-12.5Q165.23-12.5 166.08-13.73 166.93-14.95 166.93-17.85L166.93-17.85Q166.93-20.55 166.11-21.78 165.28-23 163.53-23L163.53-23ZM196.53-13.85Q196.53-13.4 196.38-11.3L196.38-11.3 182.73-11.3Q182.93-7.2 184.16-5.58 185.38-3.95 187.63-3.95L187.63-3.95Q189.18-3.95 190.43-4.48 191.68-5 193.13-6.15L193.13-6.15 195.68-2.65Q192.18 0.75 187.28 0.75L187.28 0.75Q182.08 0.75 179.31-2.85 176.53-6.45 176.53-13L176.53-13Q176.53-19.55 179.18-23.35 181.83-27.15 186.68-27.15L186.68-27.15Q191.33-27.15 193.93-23.78 196.53-20.4 196.53-13.85L196.53-13.85ZM190.53-15.3L190.53-15.65Q190.53-19.4 189.63-21.13 188.73-22.85 186.73-22.85L186.73-22.85Q184.88-22.85 183.91-21.18 182.93-19.5 182.73-15.3L182.73-15.3 190.53-15.3ZM211.98-5L214.13-1.2Q211.68 0.75 208.38 0.75L208.38 0.75Q204.93 0.75 203.13-1.23 201.33-3.2 201.33-6.6L201.33-6.6 201.33-22 198.23-22 198.23-26.45 201.33-26.45 201.33-32.3 207.48-33.05 207.48-26.45 212.48-26.45 211.88-22 207.48-22 207.48-6.6Q207.48-4.2 209.53-4.2L209.53-4.2Q210.18-4.2 210.68-4.38 211.18-4.55 211.98-5L211.98-5ZM229.03-27.15Q231.88-27.15 233.53-25.1 235.18-23.05 235.18-19.6L235.18-19.6 235.18 0 229.03 0 229.03-18.9Q229.03-20.8 228.5-21.63 227.98-22.45 226.98-22.45L226.98-22.45Q224.88-22.45 222.83-18.5L222.83-18.5 222.83 0 216.68 0 216.68-37 222.83-37.65 222.83-23.3Q224.08-25.25 225.55-26.2 227.03-27.15 229.03-27.15L229.03-27.15ZM259.57-13.85Q259.57-13.4 259.42-11.3L259.42-11.3 245.77-11.3Q245.97-7.2 247.2-5.58 248.42-3.95 250.67-3.95L250.67-3.95Q252.22-3.95 253.47-4.48 254.72-5 256.17-6.15L256.17-6.15 258.72-2.65Q255.22 0.75 250.32 0.75L250.32 0.75Q245.12 0.75 242.35-2.85 239.57-6.45 239.57-13L239.57-13Q239.57-19.55 242.22-23.35 244.87-27.15 249.72-27.15L249.72-27.15Q254.37-27.15 256.97-23.78 259.57-20.4 259.57-13.85L259.57-13.85ZM253.57-15.3L253.57-15.65Q253.57-19.4 252.67-21.13 251.77-22.85 249.77-22.85L249.77-22.85Q247.92-22.85 246.95-21.18 245.97-19.5 245.77-15.3L245.77-15.3 253.57-15.3ZM275.52-27.1Q276.67-27.1 277.57-26.75L277.57-26.75 276.57-20.85Q275.57-21.1 274.72-21.1L274.72-21.1Q272.82-21.1 271.72-19.45 270.62-17.8 270.02-14.55L270.02-14.55 270.02 0 263.87 0 263.87-26.45 269.22-26.45 269.67-21.85Q271.52-27.1 275.52-27.1L275.52-27.1ZM282.82-7.05Q284.42-7.05 285.44-5.98 286.47-4.9 286.47-3.25L286.47-3.25Q286.47-2.55 286.24-1.78 286.02-1 285.67-0.08 285.32 0.85 285.22 1.2L285.22 1.2 282.57 8.55 279.12 8.55 280.92 0.1Q279.12-1.2 279.12-3.2L279.12-3.2Q279.12-4.85 280.17-5.95 281.22-7.05 282.82-7.05L282.82-7.05ZM312.36-35.25Q315.01-35.25 317.04-34.38 319.06-33.5 320.96-31.7L320.96-31.7 317.91-28.05Q316.61-29.25 315.39-29.83 314.16-30.4 312.71-30.4L312.71-30.4Q309.71-30.4 308.01-27.4 306.31-24.4 306.31-17.35L306.31-17.35Q306.31-10.4 308.01-7.38 309.71-4.35 312.81-4.35L312.81-4.35Q314.36-4.35 315.51-4.98 316.66-5.6 318.21-6.9L318.21-6.9 321.26-3.4Q319.66-1.6 317.41-0.43 315.16 0.75 312.36 0.75L312.36 0.75Q306.51 0.75 303.06-3.8 299.61-8.35 299.61-17.35L299.61-17.35Q299.61-23.3 301.26-27.3 302.91-31.3 305.79-33.27 308.66-35.25 312.36-35.25L312.36-35.25ZM336.16-27.1Q337.31-27.1 338.21-26.75L338.21-26.75 337.21-20.85Q336.21-21.1 335.36-21.1L335.36-21.1Q333.46-21.1 332.36-19.45 331.26-17.8 330.66-14.55L330.66-14.55 330.66 0 324.51 0 324.51-26.45 329.86-26.45 330.31-21.85Q332.16-27.1 336.16-27.1L336.16-27.1ZM359.91-13.85Q359.91-13.4 359.76-11.3L359.76-11.3 346.11-11.3Q346.31-7.2 347.53-5.58 348.76-3.95 351.01-3.95L351.01-3.95Q352.56-3.95 353.81-4.48 355.06-5 356.51-6.15L356.51-6.15 359.06-2.65Q355.56 0.75 350.66 0.75L350.66 0.75Q345.46 0.75 342.68-2.85 339.91-6.45 339.91-13L339.91-13Q339.91-19.55 342.56-23.35 345.21-27.15 350.06-27.15L350.06-27.15Q354.71-27.15 357.31-23.78 359.91-20.4 359.91-13.85L359.91-13.85ZM353.91-15.3L353.91-15.65Q353.91-19.4 353.01-21.13 352.11-22.85 350.11-22.85L350.11-22.85Q348.26-22.85 347.28-21.18 346.31-19.5 346.11-15.3L346.11-15.3 353.91-15.3ZM381.11-6.4Q381.11-5.1 381.46-4.48 381.81-3.85 382.61-3.45L382.61-3.45 381.36 0.65Q379.31 0.4 378.08-0.45 376.86-1.3 376.26-3.05L376.26-3.05Q373.96 0.75 369.81 0.75L369.81 0.75Q366.51 0.75 364.56-1.48 362.61-3.7 362.61-7.4L362.61-7.4Q362.61-11.7 365.28-13.95 367.96-16.2 373.06-16.2L373.06-16.2 375.11-16.2 375.11-18.05Q375.11-20.55 374.23-21.58 373.36-22.6 371.41-22.6L371.41-22.6Q369.06-22.6 365.56-21.3L365.56-21.3 364.16-25.3Q366.16-26.2 368.31-26.68 370.46-27.15 372.41-27.15L372.41-27.15Q381.11-27.15 381.11-18.35L381.11-18.35 381.11-6.4ZM371.46-3.7Q373.86-3.7 375.11-7L375.11-7 375.11-12.55 373.66-12.55Q371.11-12.55 369.93-11.4 368.76-10.25 368.76-7.85L368.76-7.85Q368.76-5.8 369.46-4.75 370.16-3.7 371.46-3.7L371.46-3.7ZM398.05-5L400.2-1.2Q397.75 0.75 394.45 0.75L394.45 0.75Q391 0.75 389.2-1.23 387.4-3.2 387.4-6.6L387.4-6.6 387.4-22 384.3-22 384.3-26.45 387.4-26.45 387.4-32.3 393.55-33.05 393.55-26.45 398.55-26.45 397.95-22 393.55-22 393.55-6.6Q393.55-4.2 395.6-4.2L395.6-4.2Q396.25-4.2 396.75-4.38 397.25-4.55 398.05-5L398.05-5ZM421.6-13.85Q421.6-13.4 421.45-11.3L421.45-11.3 407.8-11.3Q408-7.2 409.23-5.58 410.45-3.95 412.7-3.95L412.7-3.95Q414.25-3.95 415.5-4.48 416.75-5 418.2-6.15L418.2-6.15 420.75-2.65Q417.25 0.75 412.35 0.75L412.35 0.75Q407.15 0.75 404.38-2.85 401.6-6.45 401.6-13L401.6-13Q401.6-19.55 404.25-23.35 406.9-27.15 411.75-27.15L411.75-27.15Q416.4-27.15 419-23.78 421.6-20.4 421.6-13.85L421.6-13.85ZM415.6-15.3L415.6-15.65Q415.6-19.4 414.7-21.13 413.8-22.85 411.8-22.85L411.8-22.85Q409.95-22.85 408.98-21.18 408-19.5 407.8-15.3L407.8-15.3 415.6-15.3ZM449.95-18.3Q453.3-17.55 455.22-15.63 457.15-13.7 457.15-9.9L457.15-9.9Q457.15-4.9 453.77-2.45 450.4 0 444.6 0L444.6 0 435.9 0 435.9-34.55 443.45-34.55Q449.4-34.55 452.65-32.3 455.9-30.05 455.9-25.75L455.9-25.75Q455.9-22.85 454.27-20.95 452.65-19.05 449.95-18.3L449.95-18.3ZM444.1-29.85L442.25-29.85 442.25-20.3 444.4-20.3Q449.45-20.3 449.45-25.2L449.45-25.2Q449.45-27.65 448.17-28.75 446.9-29.85 444.1-29.85L444.1-29.85ZM444.65-4.8Q447.55-4.8 449.05-6.03 450.55-7.25 450.55-10.15L450.55-10.15Q450.55-13.05 449.15-14.43 447.75-15.8 444.8-15.8L444.8-15.8 442.25-15.8 442.25-4.8 444.65-4.8ZM472.79-27.1Q473.94-27.1 474.84-26.75L474.84-26.75 473.84-20.85Q472.84-21.1 471.99-21.1L471.99-21.1Q470.09-21.1 468.99-19.45 467.89-17.8 467.29-14.55L467.29-14.55 467.29 0 461.14 0 461.14-26.45 466.49-26.45 466.94-21.85Q468.79-27.1 472.79-27.1L472.79-27.1ZM477.69-26.45L483.84-26.45 483.84 0 477.69 0 477.69-26.45ZM480.74-39.65Q482.39-39.65 483.42-38.6 484.44-37.55 484.44-35.9L484.44-35.9Q484.44-34.3 483.42-33.25 482.39-32.2 480.74-32.2L480.74-32.2Q479.09-32.2 478.07-33.25 477.04-34.3 477.04-35.9L477.04-35.9Q477.04-37.55 478.07-38.6 479.09-39.65 480.74-39.65L480.74-39.65ZM495.14 0.75Q492.44 0.75 490.86-0.93 489.29-2.6 489.29-5.4L489.29-5.4 489.29-37.05 495.44-37.7 495.44-5.65Q495.44-5 495.74-4.6 496.04-4.2 496.64-4.2L496.64-4.2Q496.99-4.2 497.31-4.3 497.64-4.4 497.74-4.4L497.74-4.4 498.94-0.2Q497.24 0.75 495.14 0.75L495.14 0.75ZM507.59 0.75Q504.89 0.75 503.31-0.93 501.74-2.6 501.74-5.4L501.74-5.4 501.74-37.05 507.89-37.7 507.89-5.65Q507.89-5 508.19-4.6 508.49-4.2 509.09-4.2L509.09-4.2Q509.44-4.2 509.76-4.3 510.09-4.4 510.19-4.4L510.19-4.4 511.39-0.2Q509.69 0.75 507.59 0.75L507.59 0.75ZM514.43-26.45L520.58-26.45 520.58 0 514.43 0 514.43-26.45ZM517.48-39.65Q519.13-39.65 520.16-38.6 521.18-37.55 521.18-35.9L521.18-35.9Q521.18-34.3 520.16-33.25 519.13-32.2 517.48-32.2L517.48-32.2Q515.83-32.2 514.81-33.25 513.78-34.3 513.78-35.9L513.78-35.9Q513.78-37.55 514.81-38.6 515.83-39.65 517.48-39.65L517.48-39.65ZM543.18-6.4Q543.18-5.1 543.53-4.48 543.88-3.85 544.68-3.45L544.68-3.45 543.43 0.65Q541.38 0.4 540.16-0.45 538.93-1.3 538.33-3.05L538.33-3.05Q536.03 0.75 531.88 0.75L531.88 0.75Q528.58 0.75 526.63-1.48 524.68-3.7 524.68-7.4L524.68-7.4Q524.68-11.7 527.36-13.95 530.03-16.2 535.13-16.2L535.13-16.2 537.18-16.2 537.18-18.05Q537.18-20.55 536.31-21.58 535.43-22.6 533.48-22.6L533.48-22.6Q531.13-22.6 527.63-21.3L527.63-21.3 526.23-25.3Q528.23-26.2 530.38-26.68 532.53-27.15 534.48-27.15L534.48-27.15Q543.18-27.15 543.18-18.35L543.18-18.35 543.18-6.4ZM533.53-3.7Q535.93-3.7 537.18-7L537.18-7 537.18-12.55 535.73-12.55Q533.18-12.55 532.01-11.4 530.83-10.25 530.83-7.85L530.83-7.85Q530.83-5.8 531.53-4.75 532.23-3.7 533.53-3.7L533.53-3.7ZM561.33-27.15Q564.18-27.15 565.83-25.1 567.48-23.05 567.48-19.6L567.48-19.6 567.48 0 561.33 0 561.33-18.9Q561.33-20.8 560.8-21.63 560.28-22.45 559.28-22.45L559.28-22.45Q557.18-22.45 555.13-18.5L555.13-18.5 555.13 0 548.98 0 548.98-26.45 554.33-26.45 554.78-23Q556.13-25.1 557.65-26.13 559.18-27.15 561.33-27.15L561.33-27.15ZM582.52-27.15Q584.67-27.15 586.42-26.43 588.17-25.7 589.77-24.15L589.77-24.15 587.13-20.65Q586.02-21.55 585.05-21.98 584.07-22.4 582.92-22.4L582.92-22.4Q580.67-22.4 579.52-20.28 578.38-18.15 578.38-13.1L578.38-13.1Q578.38-8.2 579.55-6.2 580.72-4.2 582.92-4.2L582.92-4.2Q584.02-4.2 584.92-4.6 585.82-5 587.02-5.85L587.02-5.85 589.77-2.3Q586.57 0.75 582.63 0.75L582.63 0.75Q577.52 0.75 574.7-2.73 571.88-6.2 571.88-13L571.88-13Q571.88-17.4 573.17-20.6 574.47-23.8 576.9-25.48 579.32-27.15 582.52-27.15L582.52-27.15ZM611.67-13.85Q611.67-13.4 611.52-11.3L611.52-11.3 597.87-11.3Q598.07-7.2 599.3-5.58 600.52-3.95 602.77-3.95L602.77-3.95Q604.32-3.95 605.57-4.48 606.82-5 608.27-6.15L608.27-6.15 610.82-2.65Q607.32 0.75 602.42 0.75L602.42 0.75Q597.22 0.75 594.45-2.85 591.67-6.45 591.67-13L591.67-13Q591.67-19.55 594.32-23.35 596.97-27.15 601.82-27.15L601.82-27.15Q606.47-27.15 609.07-23.78 611.67-20.4 611.67-13.85L611.67-13.85ZM605.67-15.3L605.67-15.65Q605.67-19.4 604.77-21.13 603.87-22.85 601.87-22.85L601.87-22.85Q600.02-22.85 599.05-21.18 598.07-19.5 597.87-15.3L597.87-15.3 605.67-15.3Z" opacity="1" transform="matrix(1,0,0,1,0,0)" fill="#ffffff" class="slogan-text-1" data-fill-palette-color="secondary" id="text-1"></path></svg></g></svg></g></svg></g></svg></g><g><svg viewBox="0 0 127.7719171038761 167.84665341071772" height="167.84665341071772" width="127.7719171038761"><g><svg xmlns="http://www.w3.org/2000/svg" xmlns:xlink="http://www.w3.org/1999/xlink" version="1.1" x="0" y="0" viewBox="14.5 3.3 71.1 93.4" enable-background="new 0 0 100 100" xml:space="preserve" height="167.84665341071772" width="127.7719171038761" class="icon-icon-0" data-fill-palette-color="accent" id="icon-0"><path d="M52.1 84.4V92.5H64.3C65.5 92.5 66.4 93.5 66.4 94.6S65.4 96.7 64.3 96.7H35.7C34.5 96.7 33.6 95.7 33.6 94.6S34.6 92.5 35.7 92.5H47.9V84.4H18.7C16.4 84.4 14.5 82.5 14.5 80.2V39.9C14.5 37.6 16.4 35.7 18.7 35.7H33C34.2 35.7 35.1 36.7 35.1 37.8S34.1 39.9 33 39.9H18.7V80.2H81.3V39.9H67.1C65.9 39.9 65 38.9 65 37.8S66 35.7 67.1 35.7H81.4C83.7 35.7 85.6 37.6 85.6 39.9V80.2C85.6 82.5 83.7 84.4 81.4 84.4zM50.2 3.3C53.7 3.4 56.5 6.3 56.4 9.8 56.3 12.5 54.6 14.8 52.2 15.6V68.5C52.2 69.7 51.2 70.6 50.1 70.6 48.9 70.6 48 69.6 48 68.5V15.6C47.1 15.3 46.2 14.7 45.5 14 44.3 12.8 43.7 11.2 43.7 9.5 43.8 6.1 46.6 3.3 50.1 3.3zM50.1 7.5C48.9 7.5 48 8.4 47.9 9.6 47.9 10.2 48.1 10.7 48.5 11.1S49.4 11.7 50 11.8H50.1C51.2 11.8 52.2 10.9 52.2 9.7 52.1 8.5 51.2 7.6 50.1 7.5M57.2 58.6V25.9C57.2 22.1 60.3 19 64.1 19H68.9C69.8 16.5 72.1 14.8 74.9 14.8 78.4 14.8 81.3 17.7 81.3 21.2S78.4 27.6 74.9 27.6C72.1 27.6 69.8 25.8 68.9 23.4H64.1C62.6 23.4 61.5 24.6 61.5 26V58.7C61.5 59.9 60.5 60.8 59.4 60.8 58.2 60.8 57.2 59.8 57.2 58.6M72.8 21.2C72.8 22.4 73.7 23.3 74.9 23.3S77 22.4 77 21.2 76.1 19 74.9 19 72.8 20 72.8 21.2M38.5 58.6V25.9C38.5 24.4 37.3 23.3 35.9 23.3H31.1C30.2 25.8 27.9 27.5 25.1 27.5 21.6 27.5 18.7 24.6 18.7 21.1S21.6 14.7 25.1 14.7C27.9 14.7 30.2 16.5 31.1 18.9H35.9C39.7 18.9 42.8 22 42.8 25.8V58.5C42.8 59.7 41.8 60.6 40.7 60.6S38.5 59.8 38.5 58.6M27.2 21.2C27.2 20 26.3 19.1 25.1 19.1S23 20 23 21.2 23.9 23.3 25.1 23.3 27.2 22.3 27.2 21.2" fill="#ffffff" data-fill-palette-color="accent"></path></svg></g></svg></g></svg></g><defs></defs></svg><rect width="395.52" height="121.8882153794292" fill="none" stroke="none" visibility="hidden"></rect></g></svg></g></svg>